<svg width="46" height="29" viewBox="0 0 46 29" fill="none" xmlns="http://www.w3.org/2000/svg">
<g clip-path="url(#clip0_293_4580)">
<path d="M18.5651 12.9651C18.5651 12.9651 22.9174 12.6434 22.9174 7.56189C22.9174 2.48004 19.3566 0 14.8462 0H0.00390625V28.3981H14.8462C14.8462 28.3981 23.9068 28.6831 23.9068 20.0163C23.9068 20.0164 24.3018 12.9651 18.5651 12.9651ZM13.7778 5.04744H14.8462C14.8462 5.04744 16.8637 5.04744 16.8637 8.00214C16.8637 10.9565 15.6771 11.3848 14.3313 11.3848H6.54359V5.04744H13.7778ZM14.4267 23.3508H6.54359V15.7618H14.8462C14.8462 15.7618 17.8531 15.7225 17.8531 19.6618C17.8531 22.9834 15.6072 23.3257 14.4267 23.3508ZM35.9908 7.22531C25.0219 7.22531 25.0316 18.1367 25.0316 18.1367C25.0316 18.1367 24.279 28.9921 35.9908 28.9921C35.9908 28.9921 45.7505 29.5472 45.7505 21.4406H40.7312C40.7312 21.4406 40.8986 24.4934 36.1582 24.4934C36.1582 24.4934 31.1381 24.8284 31.1381 19.5528H45.9179C45.9179 19.5527 47.535 7.22531 35.9908 7.22531ZM31.0829 15.7618C31.0829 15.7618 31.6958 11.3847 36.1023 11.3847C40.5078 11.3847 40.4526 15.7618 40.4526 15.7618H31.0829ZM41.6219 5.17003H29.8541V1.67301H41.6219V5.17003Z" fill="black"/>
</g>
<defs>
<clipPath id="clip0_293_4580">
<rect width="46" height="29" fill="white"/>
</clipPath>
</defs>
</svg>
