<svg width="368" height="293" viewBox="0 0 368 293" fill="none" xmlns="http://www.w3.org/2000/svg">
<rect x="6" y="6" width="356" height="281" rx="18" fill="white"/>
<rect x="6" y="6" width="356" height="281" rx="18" stroke="#EFEFEF" stroke-width="12"/>
<path d="M29 121L339 121" stroke="black" stroke-linecap="round" stroke-dasharray="4 4"/>
<path d="M45.248 28.936H41.6V39H39.904V28.936H36.24V27.512H45.248V28.936ZM48.3099 30.872V39H46.7499V30.872H48.3099ZM48.6059 28.36C48.6059 28.504 48.5765 28.6427 48.5179 28.776C48.4592 28.904 48.3792 29.0187 48.2779 29.12C48.1819 29.216 48.0672 29.2933 47.9339 29.352C47.8005 29.4053 47.6619 29.432 47.5179 29.432C47.3739 29.432 47.2379 29.4053 47.1099 29.352C46.9819 29.2933 46.8672 29.216 46.7659 29.12C46.6699 29.0187 46.5925 28.904 46.5339 28.776C46.4805 28.6427 46.4539 28.504 46.4539 28.36C46.4539 28.2107 46.4805 28.072 46.5339 27.944C46.5925 27.8107 46.6699 27.696 46.7659 27.6C46.8672 27.4987 46.9819 27.4213 47.1099 27.368C47.2379 27.3093 47.3739 27.28 47.5179 27.28C47.6619 27.28 47.8005 27.3093 47.9339 27.368C48.0672 27.4213 48.1819 27.4987 48.2779 27.6C48.3792 27.696 48.4592 27.8107 48.5179 27.944C48.5765 28.072 48.6059 28.2107 48.6059 28.36ZM50.7285 39V30.872H51.6645C51.8832 30.872 52.0192 30.976 52.0725 31.184L52.1845 31.96C52.4832 31.6027 52.8138 31.312 53.1765 31.088C53.5445 30.8587 53.9738 30.744 54.4645 30.744C55.0032 30.744 55.4405 30.8933 55.7765 31.192C56.1125 31.4853 56.3578 31.8853 56.5125 32.392C56.6298 32.104 56.7818 31.856 56.9685 31.648C57.1552 31.44 57.3632 31.2693 57.5925 31.136C57.8218 31.0027 58.0645 30.904 58.3205 30.84C58.5818 30.776 58.8458 30.744 59.1125 30.744C59.5445 30.744 59.9285 30.8133 60.2645 30.952C60.6058 31.0853 60.8938 31.2827 61.1285 31.544C61.3632 31.8053 61.5418 32.128 61.6645 32.512C61.7872 32.896 61.8485 33.3333 61.8485 33.824V39H60.2805V33.824C60.2805 33.216 60.1472 32.7573 59.8805 32.448C59.6192 32.1387 59.2352 31.984 58.7285 31.984C58.5045 31.984 58.2912 32.024 58.0885 32.104C57.8858 32.1787 57.7072 32.2933 57.5525 32.448C57.4032 32.6027 57.2832 32.7947 57.1925 33.024C57.1072 33.2533 57.0645 33.52 57.0645 33.824V39H55.4965V33.824C55.4965 33.1947 55.3712 32.7307 55.1205 32.432C54.8698 32.1333 54.5018 31.984 54.0165 31.984C53.6805 31.984 53.3685 32.072 53.0805 32.248C52.7925 32.424 52.5285 32.664 52.2885 32.968V39H50.7285ZM69.4913 34.032C69.4913 33.7227 69.4459 33.4373 69.3552 33.176C69.2699 32.9147 69.1419 32.688 68.9713 32.496C68.8006 32.304 68.5926 32.1547 68.3472 32.048C68.1019 31.9413 67.8192 31.888 67.4992 31.888C66.8432 31.888 66.3259 32.0773 65.9472 32.456C65.5739 32.8347 65.3366 33.36 65.2352 34.032H69.4913ZM70.7793 37.84C70.5873 38.064 70.3659 38.2587 70.1153 38.424C69.8646 38.584 69.5979 38.7147 69.3152 38.816C69.0326 38.9173 68.7392 38.992 68.4352 39.04C68.1366 39.088 67.8406 39.112 67.5472 39.112C66.9872 39.112 66.4672 39.0187 65.9872 38.832C65.5126 38.64 65.0992 38.3627 64.7472 38C64.4006 37.632 64.1286 37.1787 63.9312 36.64C63.7392 36.096 63.6432 35.472 63.6432 34.768C63.6432 34.2027 63.7312 33.6773 63.9072 33.192C64.0832 32.7013 64.3339 32.2747 64.6592 31.912C64.9899 31.5493 65.3926 31.264 65.8672 31.056C66.3419 30.848 66.8752 30.744 67.4672 30.744C67.9632 30.744 68.4192 30.8267 68.8352 30.992C69.2566 31.152 69.6192 31.3867 69.9232 31.696C70.2272 32.0053 70.4646 32.3867 70.6353 32.84C70.8113 33.2933 70.8993 33.8107 70.8993 34.392C70.8993 34.632 70.8726 34.7947 70.8193 34.88C70.7659 34.96 70.6672 35 70.5233 35H65.1952C65.2112 35.4853 65.2806 35.9093 65.4032 36.272C65.5259 36.6293 65.6939 36.928 65.9072 37.168C66.1259 37.408 66.3846 37.5867 66.6832 37.704C66.9819 37.8213 67.3152 37.88 67.6832 37.88C68.0299 37.88 68.3286 37.84 68.5792 37.76C68.8352 37.68 69.0539 37.5947 69.2352 37.504C69.4219 37.408 69.5766 37.32 69.6992 37.24C69.8272 37.16 69.9392 37.12 70.0352 37.12C70.1632 37.12 70.2619 37.168 70.3312 37.264L70.7793 37.84ZM83.2069 29.384C83.1535 29.4747 83.0975 29.5413 83.0389 29.584C82.9802 29.6267 82.9055 29.648 82.8149 29.648C82.7189 29.648 82.6095 29.6053 82.4869 29.52C82.3642 29.4293 82.2095 29.3307 82.0229 29.224C81.8415 29.112 81.6229 29.0133 81.3669 28.928C81.1109 28.8373 80.8042 28.792 80.4469 28.792C80.1109 28.792 79.8149 28.8373 79.5589 28.928C79.3082 29.0133 79.0975 29.1333 78.9269 29.288C78.7562 29.4373 78.6255 29.616 78.5349 29.824C78.4495 30.0267 78.4069 30.248 78.4069 30.488C78.4069 30.7973 78.4842 31.0533 78.6389 31.256C78.7989 31.4587 79.0069 31.632 79.2629 31.776C79.5189 31.92 79.8095 32.0453 80.1349 32.152C80.4602 32.2587 80.7935 32.3707 81.1349 32.488C81.4762 32.6 81.8095 32.7307 82.1349 32.88C82.4602 33.0293 82.7509 33.2187 83.0069 33.448C83.2629 33.672 83.4682 33.9493 83.6229 34.28C83.7829 34.6053 83.8629 35.0053 83.8629 35.48C83.8629 35.9867 83.7749 36.4613 83.5989 36.904C83.4282 37.3467 83.1775 37.7333 82.8469 38.064C82.5162 38.3947 82.1082 38.656 81.6229 38.848C81.1429 39.0347 80.5962 39.128 79.9829 39.128C79.6149 39.128 79.2575 39.0907 78.9109 39.016C78.5642 38.9467 78.2362 38.848 77.9269 38.72C77.6175 38.5867 77.3269 38.4293 77.0549 38.248C76.7882 38.0613 76.5482 37.8533 76.3349 37.624L76.8229 36.808C76.8709 36.744 76.9269 36.6907 76.9909 36.648C77.0602 36.6053 77.1375 36.584 77.2229 36.584C77.3349 36.584 77.4629 36.6427 77.6069 36.76C77.7562 36.8773 77.9375 37.008 78.1509 37.152C78.3695 37.2907 78.6282 37.4187 78.9269 37.536C79.2309 37.6533 79.5989 37.712 80.0309 37.712C80.3829 37.712 80.6975 37.6667 80.9749 37.576C81.2522 37.48 81.4842 37.3467 81.6709 37.176C81.8629 37 82.0095 36.7893 82.1109 36.544C82.2122 36.2987 82.2629 36.0267 82.2629 35.728C82.2629 35.392 82.1855 35.1173 82.0309 34.904C81.8762 34.6907 81.6709 34.512 81.4149 34.368C81.1589 34.224 80.8682 34.1013 80.5429 34C80.2175 33.8987 79.8842 33.7947 79.5429 33.688C79.2015 33.576 78.8682 33.448 78.5429 33.304C78.2175 33.16 77.9269 32.9733 77.6709 32.744C77.4149 32.5093 77.2095 32.2187 77.0549 31.872C76.9002 31.52 76.8229 31.088 76.8229 30.576C76.8229 30.1653 76.9029 29.768 77.0629 29.384C77.2229 29 77.4549 28.6613 77.7589 28.368C78.0682 28.0693 78.4469 27.832 78.8949 27.656C79.3429 27.4747 79.8549 27.384 80.4309 27.384C81.0762 27.384 81.6682 27.488 82.2069 27.696C82.7509 27.8987 83.2229 28.192 83.6229 28.576L83.2069 29.384ZM87.1941 37C87.4501 37.336 87.7248 37.5707 88.0181 37.704C88.3168 37.8373 88.6501 37.904 89.0181 37.904C89.7328 37.904 90.2848 37.648 90.6741 37.136C91.0688 36.6187 91.2661 35.8667 91.2661 34.88C91.2661 34.3627 91.2208 33.9227 91.1301 33.56C91.0448 33.192 90.9168 32.8933 90.7461 32.664C90.5808 32.4293 90.3755 32.2587 90.1301 32.152C89.8848 32.04 89.6075 31.984 89.2981 31.984C88.8448 31.984 88.4501 32.0853 88.1141 32.288C87.7835 32.4907 87.4768 32.7787 87.1941 33.152V37ZM87.1141 32.088C87.2848 31.8853 87.4661 31.7013 87.6581 31.536C87.8555 31.3653 88.0661 31.2213 88.2901 31.104C88.5141 30.9813 88.7515 30.888 89.0021 30.824C89.2581 30.7547 89.5301 30.72 89.8181 30.72C90.2821 30.72 90.7008 30.8107 91.0741 30.992C91.4528 31.1733 91.7755 31.44 92.0421 31.792C92.3088 32.144 92.5141 32.5787 92.6581 33.096C92.8075 33.6133 92.8821 34.208 92.8821 34.88C92.8821 35.4827 92.7995 36.0427 92.6341 36.56C92.4741 37.072 92.2421 37.5173 91.9381 37.896C91.6395 38.2747 91.2715 38.5733 90.8341 38.792C90.4021 39.0053 89.9141 39.112 89.3701 39.112C88.8848 39.112 88.4688 39.032 88.1221 38.872C87.7755 38.712 87.4661 38.488 87.1941 38.2V41.728H85.6341V30.872H86.5701C86.7888 30.872 86.9248 30.976 86.9781 31.184L87.1141 32.088ZM100.178 34.032C100.178 33.7227 100.133 33.4373 100.042 33.176C99.9568 32.9147 99.8288 32.688 99.6581 32.496C99.4875 32.304 99.2795 32.1547 99.0341 32.048C98.7888 31.9413 98.5061 31.888 98.1861 31.888C97.5301 31.888 97.0128 32.0773 96.6341 32.456C96.2608 32.8347 96.0235 33.36 95.9221 34.032H100.178ZM101.466 37.84C101.274 38.064 101.053 38.2587 100.802 38.424C100.551 38.584 100.285 38.7147 100.002 38.816C99.7195 38.9173 99.4261 38.992 99.1221 39.04C98.8235 39.088 98.5275 39.112 98.2341 39.112C97.6741 39.112 97.1541 39.0187 96.6741 38.832C96.1995 38.64 95.7861 38.3627 95.4341 38C95.0875 37.632 94.8155 37.1787 94.6181 36.64C94.4261 36.096 94.3301 35.472 94.3301 34.768C94.3301 34.2027 94.4181 33.6773 94.5941 33.192C94.7701 32.7013 95.0208 32.2747 95.3461 31.912C95.6768 31.5493 96.0795 31.264 96.5541 31.056C97.0288 30.848 97.5621 30.744 98.1541 30.744C98.6501 30.744 99.1061 30.8267 99.5221 30.992C99.9435 31.152 100.306 31.3867 100.61 31.696C100.914 32.0053 101.151 32.3867 101.322 32.84C101.498 33.2933 101.586 33.8107 101.586 34.392C101.586 34.632 101.559 34.7947 101.506 34.88C101.453 34.96 101.354 35 101.21 35H95.8821C95.8981 35.4853 95.9675 35.9093 96.0901 36.272C96.2128 36.6293 96.3808 36.928 96.5941 37.168C96.8128 37.408 97.0715 37.5867 97.3701 37.704C97.6688 37.8213 98.0021 37.88 98.3701 37.88C98.7168 37.88 99.0155 37.84 99.2661 37.76C99.5221 37.68 99.7408 37.5947 99.9221 37.504C100.109 37.408 100.263 37.32 100.386 37.24C100.514 37.16 100.626 37.12 100.722 37.12C100.85 37.12 100.949 37.168 101.018 37.264L101.466 37.84ZM104.887 32C105.063 31.8133 105.247 31.6427 105.439 31.488C105.631 31.3333 105.834 31.2027 106.047 31.096C106.266 30.984 106.498 30.8987 106.743 30.84C106.994 30.776 107.26 30.744 107.543 30.744C107.991 30.744 108.383 30.8187 108.719 30.968C109.06 31.1173 109.346 31.328 109.575 31.6C109.804 31.8667 109.978 32.1893 110.095 32.568C110.212 32.9467 110.271 33.3653 110.271 33.824V39H108.703V33.824C108.703 33.2427 108.57 32.792 108.303 32.472C108.036 32.1467 107.628 31.984 107.079 31.984C106.679 31.984 106.303 32.08 105.951 32.272C105.604 32.4587 105.282 32.7147 104.983 33.04V39H103.423V30.872H104.359C104.578 30.872 104.714 30.976 104.767 31.184L104.887 32ZM117.776 32.84C117.52 32.504 117.243 32.2693 116.944 32.136C116.651 32.0027 116.32 31.936 115.952 31.936C115.237 31.936 114.683 32.1947 114.288 32.712C113.899 33.224 113.704 33.9733 113.704 34.96C113.704 35.4773 113.747 35.92 113.832 36.288C113.923 36.6507 114.051 36.9493 114.216 37.184C114.387 37.4133 114.595 37.584 114.84 37.696C115.085 37.8027 115.363 37.856 115.672 37.856C116.125 37.856 116.517 37.7547 116.848 37.552C117.179 37.3493 117.488 37.064 117.776 36.696V32.84ZM119.344 27.192V39H118.4C118.181 39 118.045 38.896 117.992 38.688L117.856 37.752C117.509 38.1627 117.115 38.4933 116.672 38.744C116.235 38.9893 115.728 39.112 115.152 39.112C114.688 39.112 114.267 39.0213 113.888 38.84C113.515 38.6587 113.195 38.3947 112.928 38.048C112.661 37.696 112.456 37.2613 112.312 36.744C112.168 36.2267 112.096 35.632 112.096 34.96C112.096 34.3573 112.176 33.7973 112.336 33.28C112.496 32.7627 112.728 32.3147 113.032 31.936C113.336 31.5573 113.704 31.2613 114.136 31.048C114.568 30.8293 115.056 30.72 115.6 30.72C116.091 30.72 116.507 30.8 116.848 30.96C117.195 31.12 117.504 31.3467 117.776 31.64V27.192H119.344ZM123.312 30.872V39H121.752V30.872H123.312ZM123.608 28.36C123.608 28.504 123.579 28.6427 123.52 28.776C123.462 28.904 123.382 29.0187 123.28 29.12C123.184 29.216 123.07 29.2933 122.936 29.352C122.803 29.4053 122.664 29.432 122.52 29.432C122.376 29.432 122.24 29.4053 122.112 29.352C121.984 29.2933 121.87 29.216 121.768 29.12C121.672 29.0187 121.595 28.904 121.536 28.776C121.483 28.6427 121.456 28.504 121.456 28.36C121.456 28.2107 121.483 28.072 121.536 27.944C121.595 27.8107 121.672 27.696 121.768 27.6C121.87 27.4987 121.984 27.4213 122.112 27.368C122.24 27.3093 122.376 27.28 122.52 27.28C122.664 27.28 122.803 27.3093 122.936 27.368C123.07 27.4213 123.184 27.4987 123.28 27.6C123.382 27.696 123.462 27.8107 123.52 27.944C123.579 28.072 123.608 28.2107 123.608 28.36ZM127.195 32C127.371 31.8133 127.555 31.6427 127.747 31.488C127.939 31.3333 128.142 31.2027 128.355 31.096C128.574 30.984 128.806 30.8987 129.051 30.84C129.302 30.776 129.568 30.744 129.851 30.744C130.299 30.744 130.691 30.8187 131.027 30.968C131.368 31.1173 131.654 31.328 131.883 31.6C132.112 31.8667 132.286 32.1893 132.403 32.568C132.52 32.9467 132.579 33.3653 132.579 33.824V39H131.011V33.824C131.011 33.2427 130.878 32.792 130.611 32.472C130.344 32.1467 129.936 31.984 129.387 31.984C128.987 31.984 128.611 32.08 128.259 32.272C127.912 32.4587 127.59 32.7147 127.291 33.04V39H125.731V30.872H126.667C126.886 30.872 127.022 30.976 127.075 31.184L127.195 32ZM137.7 34.944C137.977 34.944 138.22 34.9067 138.428 34.832C138.641 34.7573 138.817 34.6533 138.956 34.52C139.1 34.3813 139.207 34.216 139.276 34.024C139.351 33.832 139.388 33.6213 139.388 33.392C139.388 32.9227 139.244 32.5493 138.956 32.272C138.673 31.9893 138.255 31.848 137.7 31.848C137.151 31.848 136.732 31.9893 136.444 32.272C136.161 32.5493 136.02 32.9227 136.02 33.392C136.02 33.6213 136.055 33.832 136.124 34.024C136.199 34.2107 136.305 34.3733 136.444 34.512C136.588 34.6453 136.764 34.752 136.972 34.832C137.185 34.9067 137.428 34.944 137.7 34.944ZM140.188 39.424C140.188 39.232 140.135 39.08 140.028 38.968C139.921 38.8507 139.775 38.76 139.588 38.696C139.407 38.6267 139.193 38.5787 138.948 38.552C138.703 38.52 138.444 38.496 138.172 38.48C137.905 38.464 137.631 38.4507 137.348 38.44C137.065 38.424 136.793 38.3973 136.532 38.36C136.255 38.4987 136.025 38.6667 135.844 38.864C135.668 39.0613 135.58 39.2933 135.58 39.56C135.58 39.7307 135.623 39.8907 135.708 40.04C135.799 40.1893 135.935 40.3173 136.116 40.424C136.303 40.536 136.535 40.6213 136.812 40.68C137.095 40.744 137.431 40.776 137.82 40.776C138.204 40.776 138.543 40.7413 138.836 40.672C139.129 40.608 139.375 40.5147 139.572 40.392C139.775 40.2747 139.927 40.1333 140.028 39.968C140.135 39.8027 140.188 39.6213 140.188 39.424ZM141.772 31.176V31.76C141.772 31.952 141.652 32.072 141.412 32.12L140.54 32.248C140.615 32.4133 140.673 32.5893 140.716 32.776C140.759 32.9573 140.78 33.1493 140.78 33.352C140.78 33.752 140.703 34.1147 140.548 34.44C140.393 34.76 140.18 35.0347 139.908 35.264C139.636 35.4933 139.311 35.6693 138.932 35.792C138.559 35.9147 138.148 35.976 137.7 35.976C137.332 35.976 136.988 35.936 136.668 35.856C136.508 35.952 136.385 36.0587 136.3 36.176C136.22 36.288 136.18 36.4 136.18 36.512C136.18 36.6987 136.257 36.8373 136.412 36.928C136.572 37.0187 136.777 37.0853 137.028 37.128C137.284 37.1653 137.575 37.1893 137.9 37.2C138.231 37.2107 138.564 37.2293 138.9 37.256C139.241 37.2773 139.575 37.32 139.9 37.384C140.231 37.4427 140.521 37.5413 140.772 37.68C141.028 37.8133 141.233 38 141.388 38.24C141.548 38.4747 141.628 38.7813 141.628 39.16C141.628 39.512 141.54 39.8533 141.364 40.184C141.193 40.5147 140.943 40.808 140.612 41.064C140.281 41.32 139.879 41.5253 139.404 41.68C138.929 41.8347 138.391 41.912 137.788 41.912C137.185 41.912 136.66 41.8533 136.212 41.736C135.769 41.6187 135.399 41.4613 135.1 41.264C134.807 41.0667 134.585 40.8373 134.436 40.576C134.292 40.3147 134.22 40.0427 134.22 39.76C134.22 39.3653 134.343 39.032 134.588 38.76C134.833 38.4827 135.172 38.2667 135.604 38.112C135.369 38.0053 135.183 37.8613 135.044 37.68C134.905 37.4933 134.836 37.248 134.836 36.944C134.836 36.8267 134.857 36.7067 134.9 36.584C134.943 36.456 135.007 36.3307 135.092 36.208C135.183 36.08 135.292 35.96 135.42 35.848C135.553 35.736 135.705 35.6347 135.876 35.544C135.476 35.32 135.161 35.024 134.932 34.656C134.703 34.2827 134.588 33.848 134.588 33.352C134.588 32.952 134.665 32.592 134.82 32.272C134.975 31.952 135.188 31.6773 135.46 31.448C135.737 31.2187 136.065 31.0427 136.444 30.92C136.828 30.7973 137.247 30.736 137.7 30.736C138.404 30.736 139.009 30.8827 139.516 31.176H141.772Z" fill="#09051D"/>
<path d="M259.992 37.568V39H253.416V27.512H255.12V37.568H259.992ZM265.858 35.392C265.224 35.4133 264.685 35.464 264.242 35.544C263.8 35.6187 263.44 35.72 263.162 35.848C262.885 35.976 262.685 36.128 262.562 36.304C262.44 36.4747 262.378 36.6667 262.378 36.88C262.378 37.0827 262.41 37.2587 262.474 37.408C262.544 37.552 262.634 37.672 262.746 37.768C262.864 37.8587 263 37.9253 263.154 37.968C263.309 38.0107 263.477 38.032 263.658 38.032C263.898 38.032 264.117 38.008 264.314 37.96C264.517 37.912 264.706 37.8453 264.882 37.76C265.058 37.6693 265.226 37.56 265.386 37.432C265.546 37.304 265.704 37.1573 265.858 36.992V35.392ZM261.282 32.008C261.736 31.576 262.226 31.2533 262.754 31.04C263.288 30.8267 263.872 30.72 264.506 30.72C264.97 30.72 265.381 30.7973 265.738 30.952C266.096 31.1013 266.397 31.312 266.642 31.584C266.888 31.856 267.072 32.1813 267.194 32.56C267.322 32.9387 267.386 33.3573 267.386 33.816V39H266.69C266.536 39 266.418 38.976 266.338 38.928C266.258 38.8747 266.194 38.7787 266.146 38.64L265.978 37.928C265.77 38.12 265.565 38.2907 265.362 38.44C265.16 38.584 264.946 38.7093 264.722 38.816C264.504 38.9173 264.269 38.9947 264.018 39.048C263.768 39.1013 263.49 39.128 263.186 39.128C262.866 39.128 262.565 39.0853 262.282 39C262.005 38.9093 261.762 38.7733 261.554 38.592C261.346 38.4107 261.181 38.184 261.058 37.912C260.941 37.64 260.882 37.3227 260.882 36.96C260.882 36.64 260.968 36.3333 261.138 36.04C261.314 35.7413 261.597 35.4747 261.986 35.24C262.381 35.0053 262.893 34.8133 263.522 34.664C264.157 34.5147 264.936 34.4293 265.858 34.408V33.816C265.858 33.2027 265.728 32.744 265.466 32.44C265.205 32.136 264.821 31.984 264.314 31.984C263.973 31.984 263.685 32.0267 263.45 32.112C263.221 32.1973 263.021 32.2933 262.85 32.4C262.685 32.5013 262.538 32.5947 262.41 32.68C262.288 32.7653 262.16 32.808 262.026 32.808C261.92 32.808 261.826 32.7787 261.746 32.72C261.672 32.6613 261.61 32.592 261.562 32.512L261.282 32.008ZM274.427 32.272C274.384 32.3413 274.339 32.392 274.291 32.424C274.243 32.4507 274.181 32.464 274.107 32.464C274.021 32.464 273.925 32.4347 273.819 32.376C273.717 32.3173 273.592 32.2533 273.443 32.184C273.299 32.1147 273.128 32.0507 272.931 31.992C272.733 31.9333 272.499 31.904 272.227 31.904C272.003 31.904 271.797 31.9333 271.611 31.992C271.429 32.0453 271.275 32.1227 271.147 32.224C271.019 32.32 270.92 32.4373 270.851 32.576C270.781 32.7093 270.747 32.8533 270.747 33.008C270.747 33.2107 270.805 33.3787 270.923 33.512C271.045 33.6453 271.203 33.76 271.395 33.856C271.592 33.952 271.813 34.04 272.059 34.12C272.309 34.1947 272.563 34.2747 272.819 34.36C273.08 34.4453 273.333 34.544 273.579 34.656C273.829 34.7627 274.051 34.8987 274.243 35.064C274.44 35.224 274.597 35.4187 274.715 35.648C274.837 35.8773 274.899 36.1573 274.899 36.488C274.899 36.8667 274.829 37.2187 274.691 37.544C274.557 37.864 274.357 38.1413 274.091 38.376C273.829 38.6107 273.504 38.7947 273.115 38.928C272.725 39.0613 272.28 39.128 271.779 39.128C271.219 39.128 270.701 39.0347 270.227 38.848C269.752 38.6613 269.355 38.424 269.035 38.136L269.403 37.536C269.445 37.4613 269.499 37.4053 269.563 37.368C269.627 37.3253 269.712 37.304 269.819 37.304C269.92 37.304 270.024 37.3413 270.131 37.416C270.237 37.4907 270.365 37.5733 270.515 37.664C270.664 37.7493 270.845 37.8293 271.059 37.904C271.272 37.9733 271.539 38.008 271.859 38.008C272.125 38.008 272.357 37.976 272.555 37.912C272.752 37.8427 272.915 37.752 273.043 37.64C273.176 37.5227 273.275 37.3893 273.339 37.24C273.403 37.0907 273.435 36.9333 273.435 36.768C273.435 36.5547 273.373 36.3787 273.251 36.24C273.133 36.096 272.976 35.9733 272.779 35.872C272.587 35.7707 272.365 35.6827 272.115 35.608C271.864 35.5333 271.608 35.4533 271.347 35.368C271.085 35.2827 270.829 35.184 270.579 35.072C270.328 34.96 270.104 34.8187 269.907 34.648C269.715 34.4773 269.557 34.2693 269.435 34.024C269.317 33.7787 269.259 33.48 269.259 33.128C269.259 32.8133 269.323 32.512 269.451 32.224C269.584 31.936 269.773 31.6827 270.019 31.464C270.269 31.2453 270.576 31.072 270.939 30.944C271.307 30.8107 271.725 30.744 272.195 30.744C272.733 30.744 273.219 30.8293 273.651 31C274.088 31.1707 274.461 31.4053 274.771 31.704L274.427 32.272ZM279.292 39.128C278.636 39.128 278.129 38.944 277.772 38.576C277.42 38.208 277.244 37.6827 277.244 37V32.136H276.3C276.209 32.136 276.132 32.1093 276.068 32.056C276.009 31.9973 275.98 31.912 275.98 31.8V31.168L277.3 30.984L277.652 28.56C277.673 28.4693 277.713 28.4 277.772 28.352C277.836 28.2987 277.916 28.272 278.012 28.272H278.804V31H281.108V32.136H278.804V36.896C278.804 37.216 278.881 37.456 279.036 37.616C279.196 37.7707 279.399 37.848 279.644 37.848C279.788 37.848 279.911 37.8293 280.012 37.792C280.119 37.7547 280.209 37.7147 280.284 37.672C280.359 37.624 280.423 37.5813 280.476 37.544C280.529 37.5067 280.577 37.488 280.62 37.488C280.673 37.488 280.713 37.5013 280.74 37.528C280.772 37.5493 280.804 37.5867 280.836 37.64L281.3 38.392C281.044 38.6267 280.74 38.808 280.388 38.936C280.036 39.064 279.671 39.128 279.292 39.128ZM294.488 27.512V28.208C294.488 28.4107 294.464 28.576 294.416 28.704C294.373 28.8267 294.33 28.9333 294.288 29.024L289.632 38.448C289.557 38.6027 289.453 38.7333 289.32 38.84C289.186 38.9467 289.008 39 288.784 39H287.664L292.392 29.712C292.472 29.5627 292.552 29.4267 292.632 29.304C292.712 29.176 292.8 29.0587 292.896 28.952H287.024C286.922 28.952 286.834 28.9147 286.76 28.84C286.685 28.7653 286.648 28.6773 286.648 28.576V27.512H294.488ZM305.8 32.84C305.544 32.504 305.266 32.2693 304.968 32.136C304.674 32.0027 304.344 31.936 303.976 31.936C303.261 31.936 302.706 32.1947 302.312 32.712C301.922 33.224 301.728 33.9733 301.728 34.96C301.728 35.4773 301.77 35.92 301.856 36.288C301.946 36.6507 302.074 36.9493 302.24 37.184C302.41 37.4133 302.618 37.584 302.864 37.696C303.109 37.8027 303.386 37.856 303.696 37.856C304.149 37.856 304.541 37.7547 304.872 37.552C305.202 37.3493 305.512 37.064 305.8 36.696V32.84ZM307.368 27.192V39H306.424C306.205 39 306.069 38.896 306.016 38.688L305.88 37.752C305.533 38.1627 305.138 38.4933 304.696 38.744C304.258 38.9893 303.752 39.112 303.176 39.112C302.712 39.112 302.29 39.0213 301.912 38.84C301.538 38.6587 301.218 38.3947 300.952 38.048C300.685 37.696 300.48 37.2613 300.336 36.744C300.192 36.2267 300.12 35.632 300.12 34.96C300.12 34.3573 300.2 33.7973 300.36 33.28C300.52 32.7627 300.752 32.3147 301.056 31.936C301.36 31.5573 301.728 31.2613 302.16 31.048C302.592 30.8293 303.08 30.72 303.624 30.72C304.114 30.72 304.53 30.8 304.872 30.96C305.218 31.12 305.528 31.3467 305.8 31.64V27.192H307.368ZM314.072 35.392C313.437 35.4133 312.899 35.464 312.456 35.544C312.013 35.6187 311.653 35.72 311.376 35.848C311.099 35.976 310.899 36.128 310.776 36.304C310.653 36.4747 310.592 36.6667 310.592 36.88C310.592 37.0827 310.624 37.2587 310.688 37.408C310.757 37.552 310.848 37.672 310.96 37.768C311.077 37.8587 311.213 37.9253 311.368 37.968C311.523 38.0107 311.691 38.032 311.872 38.032C312.112 38.032 312.331 38.008 312.528 37.96C312.731 37.912 312.92 37.8453 313.096 37.76C313.272 37.6693 313.44 37.56 313.6 37.432C313.76 37.304 313.917 37.1573 314.072 36.992V35.392ZM309.496 32.008C309.949 31.576 310.44 31.2533 310.968 31.04C311.501 30.8267 312.085 30.72 312.72 30.72C313.184 30.72 313.595 30.7973 313.952 30.952C314.309 31.1013 314.611 31.312 314.856 31.584C315.101 31.856 315.285 32.1813 315.408 32.56C315.536 32.9387 315.6 33.3573 315.6 33.816V39H314.904C314.749 39 314.632 38.976 314.552 38.928C314.472 38.8747 314.408 38.7787 314.36 38.64L314.192 37.928C313.984 38.12 313.779 38.2907 313.576 38.44C313.373 38.584 313.16 38.7093 312.936 38.816C312.717 38.9173 312.483 38.9947 312.232 39.048C311.981 39.1013 311.704 39.128 311.4 39.128C311.08 39.128 310.779 39.0853 310.496 39C310.219 38.9093 309.976 38.7733 309.768 38.592C309.56 38.4107 309.395 38.184 309.272 37.912C309.155 37.64 309.096 37.3227 309.096 36.96C309.096 36.64 309.181 36.3333 309.352 36.04C309.528 35.7413 309.811 35.4747 310.2 35.24C310.595 35.0053 311.107 34.8133 311.736 34.664C312.371 34.5147 313.149 34.4293 314.072 34.408V33.816C314.072 33.2027 313.941 32.744 313.68 32.44C313.419 32.136 313.035 31.984 312.528 31.984C312.187 31.984 311.899 32.0267 311.664 32.112C311.435 32.1973 311.235 32.2933 311.064 32.4C310.899 32.5013 310.752 32.5947 310.624 32.68C310.501 32.7653 310.373 32.808 310.24 32.808C310.133 32.808 310.04 32.7787 309.96 32.72C309.885 32.6613 309.824 32.592 309.776 32.512L309.496 32.008ZM324.749 30.872L320.237 41.36C320.189 41.4773 320.125 41.568 320.045 41.632C319.965 41.696 319.848 41.728 319.693 41.728H318.533L320.021 38.488L316.685 30.872H318.045C318.179 30.872 318.283 30.904 318.357 30.968C318.432 31.032 318.485 31.104 318.517 31.184L320.581 36.064C320.624 36.1867 320.664 36.312 320.701 36.44C320.744 36.5627 320.779 36.6853 320.805 36.808C320.843 36.68 320.883 36.5547 320.925 36.432C320.968 36.304 321.013 36.1787 321.061 36.056L323.053 31.184C323.091 31.0933 323.149 31.0187 323.229 30.96C323.309 30.9013 323.4 30.872 323.501 30.872H324.749ZM330.754 32.272C330.711 32.3413 330.666 32.392 330.618 32.424C330.57 32.4507 330.508 32.464 330.434 32.464C330.348 32.464 330.252 32.4347 330.146 32.376C330.044 32.3173 329.919 32.2533 329.77 32.184C329.626 32.1147 329.455 32.0507 329.258 31.992C329.06 31.9333 328.826 31.904 328.554 31.904C328.33 31.904 328.124 31.9333 327.938 31.992C327.756 32.0453 327.602 32.1227 327.474 32.224C327.346 32.32 327.247 32.4373 327.178 32.576C327.108 32.7093 327.074 32.8533 327.074 33.008C327.074 33.2107 327.132 33.3787 327.25 33.512C327.372 33.6453 327.53 33.76 327.722 33.856C327.919 33.952 328.14 34.04 328.386 34.12C328.636 34.1947 328.89 34.2747 329.146 34.36C329.407 34.4453 329.66 34.544 329.906 34.656C330.156 34.7627 330.378 34.8987 330.57 35.064C330.767 35.224 330.924 35.4187 331.042 35.648C331.164 35.8773 331.226 36.1573 331.226 36.488C331.226 36.8667 331.156 37.2187 331.018 37.544C330.884 37.864 330.684 38.1413 330.418 38.376C330.156 38.6107 329.831 38.7947 329.442 38.928C329.052 39.0613 328.607 39.128 328.106 39.128C327.546 39.128 327.028 39.0347 326.554 38.848C326.079 38.6613 325.682 38.424 325.362 38.136L325.73 37.536C325.772 37.4613 325.826 37.4053 325.89 37.368C325.954 37.3253 326.039 37.304 326.146 37.304C326.247 37.304 326.351 37.3413 326.458 37.416C326.564 37.4907 326.692 37.5733 326.842 37.664C326.991 37.7493 327.172 37.8293 327.386 37.904C327.599 37.9733 327.866 38.008 328.186 38.008C328.452 38.008 328.684 37.976 328.882 37.912C329.079 37.8427 329.242 37.752 329.37 37.64C329.503 37.5227 329.602 37.3893 329.666 37.24C329.73 37.0907 329.762 36.9333 329.762 36.768C329.762 36.5547 329.7 36.3787 329.578 36.24C329.46 36.096 329.303 35.9733 329.106 35.872C328.914 35.7707 328.692 35.6827 328.442 35.608C328.191 35.5333 327.935 35.4533 327.674 35.368C327.412 35.2827 327.156 35.184 326.906 35.072C326.655 34.96 326.431 34.8187 326.234 34.648C326.042 34.4773 325.884 34.2693 325.762 34.024C325.644 33.7787 325.586 33.48 325.586 33.128C325.586 32.8133 325.65 32.512 325.778 32.224C325.911 31.936 326.1 31.6827 326.346 31.464C326.596 31.2453 326.903 31.072 327.266 30.944C327.634 30.8107 328.052 30.744 328.522 30.744C329.06 30.744 329.546 30.8293 329.978 31C330.415 31.1707 330.788 31.4053 331.098 31.704L330.754 32.272Z" fill="#5B5B5B"/>
<path d="M52.432 81.392V84H39.872V81.392H44.672V66.96C44.672 66.448 44.688 65.9253 44.72 65.392L41.024 68.512C40.864 68.64 40.6987 68.7253 40.528 68.768C40.368 68.8 40.2133 68.8 40.064 68.768C39.9253 68.736 39.7973 68.688 39.68 68.624C39.5733 68.5493 39.488 68.4693 39.424 68.384L38.352 66.88L45.296 60.912H48.096V81.392H52.432ZM70.6265 80.752C70.9998 80.752 71.2932 80.864 71.5065 81.088C71.7198 81.3013 71.8265 81.5787 71.8265 81.92V84H56.2425V82.832C56.2425 82.5973 56.2905 82.352 56.3865 82.096C56.4825 81.84 56.6372 81.6053 56.8505 81.392L64.0185 74.208C64.6265 73.6 65.1652 73.0187 65.6345 72.464C66.1145 71.9093 66.5198 71.3547 66.8505 70.8C67.1918 70.2453 67.4478 69.6853 67.6185 69.12C67.7998 68.544 67.8905 67.9413 67.8905 67.312C67.8905 66.704 67.7945 66.1707 67.6025 65.712C67.4212 65.2427 67.1652 64.8587 66.8345 64.56C66.5145 64.2507 66.1252 64.0213 65.6665 63.872C65.2185 63.712 64.7225 63.632 64.1785 63.632C63.6558 63.632 63.1705 63.7067 62.7225 63.856C62.2852 64.0053 61.8905 64.2133 61.5385 64.48C61.1972 64.7467 60.9092 65.0667 60.6745 65.44C60.4505 65.8027 60.2852 66.2027 60.1785 66.64C60.0185 67.0773 59.8105 67.3707 59.5545 67.52C59.3092 67.6693 58.9465 67.7013 58.4665 67.616L56.6585 67.296C56.8185 66.208 57.1172 65.2533 57.5545 64.432C58.0025 63.6107 58.5625 62.928 59.2345 62.384C59.9065 61.8293 60.6745 61.4133 61.5385 61.136C62.4132 60.848 63.3572 60.704 64.3705 60.704C65.3945 60.704 66.3332 60.8587 67.1865 61.168C68.0505 61.4667 68.7918 61.8987 69.4105 62.464C70.0398 63.0187 70.5305 63.696 70.8825 64.496C71.2345 65.296 71.4105 66.1973 71.4105 67.2C71.4105 68.0533 71.2825 68.8427 71.0265 69.568C70.7812 70.2933 70.4452 70.9867 70.0185 71.648C69.5918 72.3093 69.0905 72.9547 68.5145 73.584C67.9492 74.2027 67.3518 74.832 66.7225 75.472L61.1545 81.168C61.6132 81.04 62.0718 80.9387 62.5305 80.864C62.9998 80.7893 63.4425 80.752 63.8585 80.752H70.6265ZM90.8056 72.512V84H89.1016V78.824H83.1096V84H81.3976V72.512H83.1096V77.584H89.1016V72.512H90.8056ZM96.7016 75.744C97.2989 75.744 97.8376 75.8427 98.3176 76.04C98.8029 76.232 99.2136 76.512 99.5496 76.88C99.8909 77.2427 100.152 77.6827 100.334 78.2C100.515 78.712 100.606 79.288 100.606 79.928C100.606 80.568 100.515 81.1467 100.334 81.664C100.152 82.1813 99.8909 82.6213 99.5496 82.984C99.2136 83.3467 98.8029 83.6267 98.3176 83.824C97.8376 84.016 97.2989 84.112 96.7016 84.112C96.0989 84.112 95.5549 84.016 95.0696 83.824C94.5896 83.6267 94.1789 83.3467 93.8376 82.984C93.4962 82.6213 93.2322 82.1813 93.0456 81.664C92.8642 81.1467 92.7736 80.568 92.7736 79.928C92.7736 79.288 92.8642 78.712 93.0456 78.2C93.2322 77.6827 93.4962 77.2427 93.8376 76.88C94.1789 76.512 94.5896 76.232 95.0696 76.04C95.5549 75.8427 96.0989 75.744 96.7016 75.744ZM96.7016 82.896C97.4696 82.896 98.0429 82.6373 98.4216 82.12C98.8002 81.6027 98.9896 80.8747 98.9896 79.936C98.9896 78.9973 98.8002 78.2693 98.4216 77.752C98.0429 77.2293 97.4696 76.968 96.7016 76.968C95.9229 76.968 95.3416 77.2293 94.9576 77.752C94.5789 78.2693 94.3896 78.9973 94.3896 79.936C94.3896 80.8747 94.5789 81.6027 94.9576 82.12C95.3416 82.6373 95.9229 82.896 96.7016 82.896ZM109.267 75.872V84H108.331C108.118 84 107.979 83.896 107.915 83.688L107.803 82.872C107.627 83.0587 107.443 83.2293 107.251 83.384C107.059 83.5387 106.854 83.672 106.635 83.784C106.416 83.8907 106.184 83.9733 105.939 84.032C105.694 84.096 105.43 84.128 105.147 84.128C104.699 84.128 104.304 84.0533 103.963 83.904C103.627 83.7547 103.344 83.5467 103.115 83.28C102.886 83.008 102.712 82.6827 102.595 82.304C102.478 81.9253 102.419 81.5067 102.419 81.048V75.872H103.987V81.048C103.987 81.6293 104.12 82.0827 104.387 82.408C104.654 82.728 105.062 82.888 105.611 82.888C106.011 82.888 106.384 82.7947 106.731 82.608C107.078 82.416 107.403 82.1547 107.707 81.824V75.872H109.267ZM113.076 77.432C113.338 76.8987 113.652 76.48 114.02 76.176C114.388 75.872 114.831 75.72 115.348 75.72C115.524 75.72 115.69 75.7413 115.844 75.784C116.004 75.8213 116.143 75.88 116.26 75.96L116.156 77.136C116.119 77.28 116.031 77.352 115.892 77.352C115.818 77.352 115.706 77.3387 115.556 77.312C115.407 77.28 115.247 77.264 115.076 77.264C114.826 77.264 114.604 77.3013 114.412 77.376C114.22 77.4453 114.047 77.552 113.892 77.696C113.743 77.8347 113.61 78.008 113.492 78.216C113.375 78.4187 113.266 78.6507 113.164 78.912V84H111.604V75.872H112.5C112.671 75.872 112.786 75.904 112.844 75.968C112.908 76.0267 112.954 76.1333 112.98 76.288L113.076 77.432ZM122.369 77.272C122.326 77.3413 122.281 77.392 122.233 77.424C122.185 77.4507 122.124 77.464 122.049 77.464C121.964 77.464 121.868 77.4347 121.761 77.376C121.66 77.3173 121.534 77.2533 121.385 77.184C121.241 77.1147 121.07 77.0507 120.873 76.992C120.676 76.9333 120.441 76.904 120.169 76.904C119.945 76.904 119.74 76.9333 119.553 76.992C119.372 77.0453 119.217 77.1227 119.089 77.224C118.961 77.32 118.862 77.4373 118.793 77.576C118.724 77.7093 118.689 77.8533 118.689 78.008C118.689 78.2107 118.748 78.3787 118.865 78.512C118.988 78.6453 119.145 78.76 119.337 78.856C119.534 78.952 119.756 79.04 120.001 79.12C120.252 79.1947 120.505 79.2747 120.761 79.36C121.022 79.4453 121.276 79.544 121.521 79.656C121.772 79.7627 121.993 79.8987 122.185 80.064C122.382 80.224 122.54 80.4187 122.657 80.648C122.78 80.8773 122.841 81.1573 122.841 81.488C122.841 81.8667 122.772 82.2187 122.633 82.544C122.5 82.864 122.3 83.1413 122.033 83.376C121.772 83.6107 121.446 83.7947 121.057 83.928C120.668 84.0613 120.222 84.128 119.721 84.128C119.161 84.128 118.644 84.0347 118.169 83.848C117.694 83.6613 117.297 83.424 116.977 83.136L117.345 82.536C117.388 82.4613 117.441 82.4053 117.505 82.368C117.569 82.3253 117.654 82.304 117.761 82.304C117.862 82.304 117.966 82.3413 118.073 82.416C118.18 82.4907 118.308 82.5733 118.457 82.664C118.606 82.7493 118.788 82.8293 119.001 82.904C119.214 82.9733 119.481 83.008 119.801 83.008C120.068 83.008 120.3 82.976 120.497 82.912C120.694 82.8427 120.857 82.752 120.985 82.64C121.118 82.5227 121.217 82.3893 121.281 82.24C121.345 82.0907 121.377 81.9333 121.377 81.768C121.377 81.5547 121.316 81.3787 121.193 81.24C121.076 81.096 120.918 80.9733 120.721 80.872C120.529 80.7707 120.308 80.6827 120.057 80.608C119.806 80.5333 119.55 80.4533 119.289 80.368C119.028 80.2827 118.772 80.184 118.521 80.072C118.27 79.96 118.046 79.8187 117.849 79.648C117.657 79.4773 117.5 79.2693 117.377 79.024C117.26 78.7787 117.201 78.48 117.201 78.128C117.201 77.8133 117.265 77.512 117.393 77.224C117.526 76.936 117.716 76.6827 117.961 76.464C118.212 76.2453 118.518 76.072 118.881 75.944C119.249 75.8107 119.668 75.744 120.137 75.744C120.676 75.744 121.161 75.8293 121.593 76C122.03 76.1707 122.404 76.4053 122.713 76.704L122.369 77.272Z" fill="#09051D"/>
<rect x="29" y="137" width="34" height="91" rx="8" fill="#F4F4F4"/>
<rect x="75" y="158" width="34" height="70" rx="8" fill="#F4F4F4"/>
<rect x="121" y="142" width="34" height="86" rx="8" fill="#F4F4F4"/>
<rect x="167" y="170" width="34" height="58" rx="8" fill="#F4F4F4"/>
<rect x="213" y="115" width="34" height="113" rx="8" fill="#F34D1A"/>
<rect x="259" y="137" width="34" height="91" rx="8" fill="#F4F4F4"/>
<rect x="305" y="147" width="34" height="81" rx="8" fill="#F4F4F4"/>
<path d="M40.7336 245.586C40.6869 245.665 40.6379 245.724 40.5866 245.761C40.5353 245.798 40.4699 245.817 40.3906 245.817C40.3066 245.817 40.2109 245.78 40.1036 245.705C39.9963 245.626 39.8609 245.539 39.6976 245.446C39.5389 245.348 39.3476 245.262 39.1236 245.187C38.8996 245.108 38.6313 245.068 38.3186 245.068C38.0246 245.068 37.7656 245.108 37.5416 245.187C37.3223 245.262 37.1379 245.367 36.9886 245.502C36.8393 245.633 36.7249 245.789 36.6456 245.971C36.5709 246.148 36.5336 246.342 36.5336 246.552C36.5336 246.823 36.6013 247.047 36.7366 247.224C36.8766 247.401 37.0586 247.553 37.2826 247.679C37.5066 247.805 37.7609 247.915 38.0456 248.008C38.3303 248.101 38.6219 248.199 38.9206 248.302C39.2193 248.4 39.5109 248.514 39.7956 248.645C40.0803 248.776 40.3346 248.941 40.5586 249.142C40.7826 249.338 40.9623 249.581 41.0976 249.87C41.2376 250.155 41.3076 250.505 41.3076 250.92C41.3076 251.363 41.2306 251.779 41.0766 252.166C40.9273 252.553 40.7079 252.892 40.4186 253.181C40.1293 253.47 39.7723 253.699 39.3476 253.867C38.9276 254.03 38.4493 254.112 37.9126 254.112C37.5906 254.112 37.2779 254.079 36.9746 254.014C36.6713 253.953 36.3843 253.867 36.1136 253.755C35.8429 253.638 35.5886 253.501 35.3506 253.342C35.1173 253.179 34.9073 252.997 34.7206 252.796L35.1476 252.082C35.1896 252.026 35.2386 251.979 35.2946 251.942C35.3553 251.905 35.4229 251.886 35.4976 251.886C35.5956 251.886 35.7076 251.937 35.8336 252.04C35.9643 252.143 36.1229 252.257 36.3096 252.383C36.5009 252.504 36.7273 252.616 36.9886 252.719C37.2546 252.822 37.5766 252.873 37.9546 252.873C38.2626 252.873 38.5379 252.833 38.7806 252.754C39.0233 252.67 39.2263 252.553 39.3896 252.404C39.5576 252.25 39.6859 252.066 39.7746 251.851C39.8633 251.636 39.9076 251.398 39.9076 251.137C39.9076 250.843 39.8399 250.603 39.7046 250.416C39.5693 250.229 39.3896 250.073 39.1656 249.947C38.9416 249.821 38.6873 249.714 38.4026 249.625C38.1179 249.536 37.8263 249.445 37.5276 249.352C37.2289 249.254 36.9373 249.142 36.6526 249.016C36.3679 248.89 36.1136 248.727 35.8896 248.526C35.6656 248.321 35.4859 248.066 35.3506 247.763C35.2153 247.455 35.1476 247.077 35.1476 246.629C35.1476 246.27 35.2176 245.922 35.3576 245.586C35.4976 245.25 35.7006 244.954 35.9666 244.697C36.2373 244.436 36.5686 244.228 36.9606 244.074C37.3526 243.915 37.8006 243.836 38.3046 243.836C38.8693 243.836 39.3873 243.927 39.8586 244.109C40.3346 244.286 40.7476 244.543 41.0976 244.879L40.7336 245.586ZM48.7861 246.888V254H47.9671C47.7804 254 47.6591 253.909 47.6031 253.727L47.5051 253.013C47.3511 253.176 47.1901 253.326 47.0221 253.461C46.8541 253.596 46.6744 253.713 46.4831 253.811C46.2918 253.904 46.0888 253.977 45.8741 254.028C45.6594 254.084 45.4284 254.112 45.1811 254.112C44.7891 254.112 44.4438 254.047 44.1451 253.916C43.8511 253.785 43.6038 253.603 43.4031 253.37C43.2024 253.132 43.0508 252.847 42.9481 252.516C42.8454 252.185 42.7941 251.818 42.7941 251.417V246.888H44.1661V251.417C44.1661 251.926 44.2828 252.322 44.5161 252.607C44.7494 252.887 45.1064 253.027 45.5871 253.027C45.9371 253.027 46.2638 252.945 46.5671 252.782C46.8704 252.614 47.1551 252.385 47.4211 252.096V246.888H48.7861ZM52.1124 247.875C52.2664 247.712 52.4274 247.562 52.5954 247.427C52.7634 247.292 52.9408 247.177 53.1274 247.084C53.3188 246.986 53.5218 246.911 53.7364 246.86C53.9558 246.804 54.1891 246.776 54.4364 246.776C54.8284 246.776 55.1714 246.841 55.4654 246.972C55.7641 247.103 56.0138 247.287 56.2144 247.525C56.4151 247.758 56.5668 248.041 56.6694 248.372C56.7721 248.703 56.8234 249.07 56.8234 249.471V254H55.4514V249.471C55.4514 248.962 55.3348 248.568 55.1014 248.288C54.8681 248.003 54.5111 247.861 54.0304 247.861C53.6804 247.861 53.3514 247.945 53.0434 248.113C52.7401 248.276 52.4578 248.5 52.1964 248.785V254H50.8314V246.888H51.6504C51.8418 246.888 51.9608 246.979 52.0074 247.161L52.1124 247.875Z" fill="#5B5B5B"/>
<path d="M89.3477 243.948V254H88.0457V246.846C88.0457 246.739 88.048 246.624 88.0527 246.503C88.062 246.382 88.0714 246.258 88.0807 246.132L84.7347 252.271C84.618 252.5 84.4384 252.614 84.1957 252.614H83.9857C83.743 252.614 83.5657 252.5 83.4537 252.271L80.0447 246.111C80.0727 246.372 80.0867 246.617 80.0867 246.846V254H78.7777V243.948H79.8837C80.0144 243.948 80.1147 243.962 80.1847 243.99C80.2594 244.013 80.3294 244.083 80.3947 244.2L83.7547 250.22C83.82 250.341 83.8807 250.47 83.9367 250.605C83.9927 250.74 84.0464 250.876 84.0977 251.011C84.1957 250.736 84.31 250.47 84.4407 250.213L87.7377 244.2C87.7984 244.083 87.8637 244.013 87.9337 243.99C88.0084 243.962 88.111 243.948 88.2417 243.948H89.3477ZM94.5066 246.776C95.0293 246.776 95.5006 246.862 95.9206 247.035C96.3453 247.203 96.7046 247.448 96.9986 247.77C97.2973 248.087 97.5259 248.472 97.6846 248.925C97.8433 249.373 97.9226 249.877 97.9226 250.437C97.9226 250.997 97.8433 251.503 97.6846 251.956C97.5259 252.409 97.2973 252.794 96.9986 253.111C96.7046 253.428 96.3453 253.673 95.9206 253.846C95.5006 254.014 95.0293 254.098 94.5066 254.098C93.9793 254.098 93.5033 254.014 93.0786 253.846C92.6586 253.673 92.2993 253.428 92.0006 253.111C91.7019 252.794 91.4709 252.409 91.3076 251.956C91.1489 251.503 91.0696 250.997 91.0696 250.437C91.0696 249.877 91.1489 249.373 91.3076 248.925C91.4709 248.472 91.7019 248.087 92.0006 247.77C92.2993 247.448 92.6586 247.203 93.0786 247.035C93.5033 246.862 93.9793 246.776 94.5066 246.776ZM94.5066 253.034C95.1786 253.034 95.6803 252.808 96.0116 252.355C96.3429 251.902 96.5086 251.265 96.5086 250.444C96.5086 249.623 96.3429 248.986 96.0116 248.533C95.6803 248.076 95.1786 247.847 94.5066 247.847C93.8253 247.847 93.3166 248.076 92.9806 248.533C92.6493 248.986 92.4836 249.623 92.4836 250.444C92.4836 251.265 92.6493 251.902 92.9806 252.355C93.3166 252.808 93.8253 253.034 94.5066 253.034ZM100.867 247.875C101.021 247.712 101.182 247.562 101.35 247.427C101.518 247.292 101.696 247.177 101.882 247.084C102.074 246.986 102.277 246.911 102.491 246.86C102.711 246.804 102.944 246.776 103.191 246.776C103.583 246.776 103.926 246.841 104.22 246.972C104.519 247.103 104.769 247.287 104.969 247.525C105.17 247.758 105.322 248.041 105.424 248.372C105.527 248.703 105.578 249.07 105.578 249.471V254H104.206V249.471C104.206 248.962 104.09 248.568 103.856 248.288C103.623 248.003 103.266 247.861 102.785 247.861C102.435 247.861 102.106 247.945 101.798 248.113C101.495 248.276 101.213 248.5 100.951 248.785V254H99.5863V246.888H100.405C100.597 246.888 100.716 246.979 100.762 247.161L100.867 247.875Z" fill="#5B5B5B"/>
<path d="M134.898 245.194H131.706V254H130.222V245.194H127.016V243.948H134.898V245.194ZM140.697 246.888V254H139.878C139.692 254 139.57 253.909 139.514 253.727L139.416 253.013C139.262 253.176 139.101 253.326 138.933 253.461C138.765 253.596 138.586 253.713 138.394 253.811C138.203 253.904 138 253.977 137.785 254.028C137.571 254.084 137.34 254.112 137.092 254.112C136.7 254.112 136.355 254.047 136.056 253.916C135.762 253.785 135.515 253.603 135.314 253.37C135.114 253.132 134.962 252.847 134.859 252.516C134.757 252.185 134.705 251.818 134.705 251.417V246.888H136.077V251.417C136.077 251.926 136.194 252.322 136.427 252.607C136.661 252.887 137.018 253.027 137.498 253.027C137.848 253.027 138.175 252.945 138.478 252.782C138.782 252.614 139.066 252.385 139.332 252.096V246.888H140.697ZM147.454 249.653C147.454 249.382 147.414 249.133 147.335 248.904C147.26 248.675 147.148 248.477 146.999 248.309C146.849 248.141 146.667 248.01 146.453 247.917C146.238 247.824 145.991 247.777 145.711 247.777C145.137 247.777 144.684 247.943 144.353 248.274C144.026 248.605 143.818 249.065 143.73 249.653H147.454ZM148.581 252.985C148.413 253.181 148.219 253.351 148 253.496C147.78 253.636 147.547 253.75 147.3 253.839C147.052 253.928 146.796 253.993 146.53 254.035C146.268 254.077 146.009 254.098 145.753 254.098C145.263 254.098 144.808 254.016 144.388 253.853C143.972 253.685 143.611 253.442 143.303 253.125C142.999 252.803 142.761 252.406 142.589 251.935C142.421 251.459 142.337 250.913 142.337 250.297C142.337 249.802 142.414 249.343 142.568 248.918C142.722 248.489 142.941 248.115 143.226 247.798C143.515 247.481 143.867 247.231 144.283 247.049C144.698 246.867 145.165 246.776 145.683 246.776C146.117 246.776 146.516 246.848 146.88 246.993C147.248 247.133 147.566 247.338 147.832 247.609C148.098 247.88 148.305 248.213 148.455 248.61C148.609 249.007 148.686 249.459 148.686 249.968C148.686 250.178 148.662 250.32 148.616 250.395C148.569 250.465 148.483 250.5 148.357 250.5H143.695C143.709 250.925 143.769 251.296 143.877 251.613C143.984 251.926 144.131 252.187 144.318 252.397C144.509 252.607 144.735 252.763 144.997 252.866C145.258 252.969 145.55 253.02 145.872 253.02C146.175 253.02 146.436 252.985 146.656 252.915C146.88 252.845 147.071 252.77 147.23 252.691C147.393 252.607 147.528 252.53 147.636 252.46C147.748 252.39 147.846 252.355 147.93 252.355C148.042 252.355 148.128 252.397 148.189 252.481L148.581 252.985Z" fill="#5B5B5B"/>
<path d="M183.718 243.948L180.582 254H179.238L176.788 246.545C176.732 246.396 176.683 246.216 176.641 246.006C176.59 246.221 176.541 246.4 176.494 246.545L174.016 254H172.679L169.543 243.948H170.789C170.92 243.948 171.029 243.981 171.118 244.046C171.207 244.107 171.265 244.191 171.293 244.298L173.274 251.025C173.311 251.156 173.344 251.298 173.372 251.452C173.405 251.606 173.437 251.767 173.47 251.935C173.503 251.767 173.535 251.606 173.568 251.452C173.605 251.298 173.647 251.156 173.694 251.025L175.962 244.298C175.99 244.205 176.048 244.123 176.137 244.053C176.23 243.983 176.34 243.948 176.466 243.948H176.893C177.024 243.948 177.131 243.981 177.215 244.046C177.299 244.111 177.36 244.195 177.397 244.298L179.658 251.025C179.742 251.282 179.817 251.573 179.882 251.9C179.938 251.578 179.999 251.286 180.064 251.025L182.052 244.298C182.075 244.205 182.134 244.123 182.227 244.053C182.32 243.983 182.43 243.948 182.556 243.948H183.718ZM188.904 249.653C188.904 249.382 188.865 249.133 188.785 248.904C188.711 248.675 188.599 248.477 188.449 248.309C188.3 248.141 188.118 248.01 187.903 247.917C187.689 247.824 187.441 247.777 187.161 247.777C186.587 247.777 186.135 247.943 185.803 248.274C185.477 248.605 185.269 249.065 185.18 249.653H188.904ZM190.031 252.985C189.863 253.181 189.67 253.351 189.45 253.496C189.231 253.636 188.998 253.75 188.75 253.839C188.503 253.928 188.246 253.993 187.98 254.035C187.719 254.077 187.46 254.098 187.203 254.098C186.713 254.098 186.258 254.016 185.838 253.853C185.423 253.685 185.061 253.442 184.753 253.125C184.45 252.803 184.212 252.406 184.039 251.935C183.871 251.459 183.787 250.913 183.787 250.297C183.787 249.802 183.864 249.343 184.018 248.918C184.172 248.489 184.392 248.115 184.676 247.798C184.966 247.481 185.318 247.231 185.733 247.049C186.149 246.867 186.615 246.776 187.133 246.776C187.567 246.776 187.966 246.848 188.33 246.993C188.699 247.133 189.016 247.338 189.282 247.609C189.548 247.88 189.756 248.213 189.905 248.61C190.059 249.007 190.136 249.459 190.136 249.968C190.136 250.178 190.113 250.32 190.066 250.395C190.02 250.465 189.933 250.5 189.807 250.5H185.145C185.159 250.925 185.22 251.296 185.327 251.613C185.435 251.926 185.582 252.187 185.768 252.397C185.96 252.607 186.186 252.763 186.447 252.866C186.709 252.969 187 253.02 187.322 253.02C187.626 253.02 187.887 252.985 188.106 252.915C188.33 252.845 188.522 252.77 188.68 252.691C188.844 252.607 188.979 252.53 189.086 252.46C189.198 252.39 189.296 252.355 189.38 252.355C189.492 252.355 189.579 252.397 189.639 252.481L190.031 252.985ZM196.329 248.61C196.105 248.316 195.862 248.111 195.601 247.994C195.344 247.877 195.055 247.819 194.733 247.819C194.107 247.819 193.622 248.045 193.277 248.498C192.936 248.946 192.766 249.602 192.766 250.465C192.766 250.918 192.803 251.305 192.878 251.627C192.957 251.944 193.069 252.206 193.214 252.411C193.363 252.612 193.545 252.761 193.76 252.859C193.974 252.952 194.217 252.999 194.488 252.999C194.884 252.999 195.227 252.91 195.517 252.733C195.806 252.556 196.077 252.306 196.329 251.984V248.61ZM197.701 243.668V254H196.875C196.683 254 196.564 253.909 196.518 253.727L196.399 252.908C196.095 253.267 195.75 253.557 195.363 253.776C194.98 253.991 194.537 254.098 194.033 254.098C193.627 254.098 193.258 254.019 192.927 253.86C192.6 253.701 192.32 253.47 192.087 253.167C191.853 252.859 191.674 252.479 191.548 252.026C191.422 251.573 191.359 251.053 191.359 250.465C191.359 249.938 191.429 249.448 191.569 248.995C191.709 248.542 191.912 248.15 192.178 247.819C192.444 247.488 192.766 247.229 193.144 247.042C193.522 246.851 193.949 246.755 194.425 246.755C194.854 246.755 195.218 246.825 195.517 246.965C195.82 247.105 196.091 247.303 196.329 247.56V243.668H197.701Z" fill="#5B5B5B"/>
<path d="M226.037 245.194H222.845V254H221.361V245.194H218.155V243.948H226.037V245.194ZM228.585 247.791C228.883 247.488 229.212 247.243 229.572 247.056C229.936 246.869 230.353 246.776 230.825 246.776C231.217 246.776 231.56 246.841 231.854 246.972C232.152 247.103 232.402 247.287 232.603 247.525C232.803 247.758 232.955 248.041 233.058 248.372C233.16 248.703 233.212 249.07 233.212 249.471V254H231.84V249.471C231.84 248.962 231.723 248.568 231.49 248.288C231.256 248.003 230.899 247.861 230.419 247.861C230.069 247.861 229.74 247.945 229.432 248.113C229.128 248.276 228.846 248.5 228.585 248.785V254H227.22V243.668H228.585V247.791ZM241.109 246.888V254H240.29C240.103 254 239.982 253.909 239.926 253.727L239.828 253.013C239.674 253.176 239.513 253.326 239.345 253.461C239.177 253.596 238.997 253.713 238.806 253.811C238.614 253.904 238.411 253.977 238.197 254.028C237.982 254.084 237.751 254.112 237.504 254.112C237.112 254.112 236.766 254.047 236.468 253.916C236.174 253.785 235.926 253.603 235.726 253.37C235.525 253.132 235.373 252.847 235.271 252.516C235.168 252.185 235.117 251.818 235.117 251.417V246.888H236.489V251.417C236.489 251.926 236.605 252.322 236.839 252.607C237.072 252.887 237.429 253.027 237.91 253.027C238.26 253.027 238.586 252.945 238.89 252.782C239.193 252.614 239.478 252.385 239.744 252.096V246.888H241.109Z" fill="#5B5B5B"/>
<path d="M270.674 245.159V248.526H274.706V249.737H270.674V254H269.176V243.948H275.406V245.159H270.674ZM277.639 248.253C277.867 247.786 278.143 247.42 278.465 247.154C278.787 246.888 279.174 246.755 279.627 246.755C279.781 246.755 279.925 246.774 280.061 246.811C280.201 246.844 280.322 246.895 280.425 246.965L280.334 247.994C280.301 248.12 280.224 248.183 280.103 248.183C280.037 248.183 279.939 248.171 279.809 248.148C279.678 248.12 279.538 248.106 279.389 248.106C279.169 248.106 278.976 248.139 278.808 248.204C278.64 248.265 278.488 248.358 278.353 248.484C278.222 248.605 278.105 248.757 278.003 248.939C277.9 249.116 277.804 249.319 277.716 249.548V254H276.351V246.888H277.135C277.284 246.888 277.384 246.916 277.436 246.972C277.492 247.023 277.531 247.117 277.555 247.252L277.639 248.253ZM283.046 246.888V254H281.681V246.888H283.046ZM283.305 244.69C283.305 244.816 283.279 244.937 283.228 245.054C283.176 245.166 283.106 245.266 283.018 245.355C282.934 245.439 282.833 245.507 282.717 245.558C282.6 245.605 282.479 245.628 282.353 245.628C282.227 245.628 282.108 245.605 281.996 245.558C281.884 245.507 281.783 245.439 281.695 245.355C281.611 245.266 281.543 245.166 281.492 245.054C281.445 244.937 281.422 244.816 281.422 244.69C281.422 244.559 281.445 244.438 281.492 244.326C281.543 244.209 281.611 244.109 281.695 244.025C281.783 243.936 281.884 243.869 281.996 243.822C282.108 243.771 282.227 243.745 282.353 243.745C282.479 243.745 282.6 243.771 282.717 243.822C282.833 243.869 282.934 243.936 283.018 244.025C283.106 244.109 283.176 244.209 283.228 244.326C283.279 244.438 283.305 244.559 283.305 244.69Z" fill="#5B5B5B"/>
<path d="M318.559 245.586C318.512 245.665 318.463 245.724 318.412 245.761C318.36 245.798 318.295 245.817 318.216 245.817C318.132 245.817 318.036 245.78 317.929 245.705C317.821 245.626 317.686 245.539 317.523 245.446C317.364 245.348 317.173 245.262 316.949 245.187C316.725 245.108 316.456 245.068 316.144 245.068C315.85 245.068 315.591 245.108 315.367 245.187C315.147 245.262 314.963 245.367 314.814 245.502C314.664 245.633 314.55 245.789 314.471 245.971C314.396 246.148 314.359 246.342 314.359 246.552C314.359 246.823 314.426 247.047 314.562 247.224C314.702 247.401 314.884 247.553 315.108 247.679C315.332 247.805 315.586 247.915 315.871 248.008C316.155 248.101 316.447 248.199 316.746 248.302C317.044 248.4 317.336 248.514 317.621 248.645C317.905 248.776 318.16 248.941 318.384 249.142C318.608 249.338 318.787 249.581 318.923 249.87C319.063 250.155 319.133 250.505 319.133 250.92C319.133 251.363 319.056 251.779 318.902 252.166C318.752 252.553 318.533 252.892 318.244 253.181C317.954 253.47 317.597 253.699 317.173 253.867C316.753 254.03 316.274 254.112 315.738 254.112C315.416 254.112 315.103 254.079 314.8 254.014C314.496 253.953 314.209 253.867 313.939 253.755C313.668 253.638 313.414 253.501 313.176 253.342C312.942 253.179 312.732 252.997 312.546 252.796L312.973 252.082C313.015 252.026 313.064 251.979 313.12 251.942C313.18 251.905 313.248 251.886 313.323 251.886C313.421 251.886 313.533 251.937 313.659 252.04C313.789 252.143 313.948 252.257 314.135 252.383C314.326 252.504 314.552 252.616 314.814 252.719C315.08 252.822 315.402 252.873 315.78 252.873C316.088 252.873 316.363 252.833 316.606 252.754C316.848 252.67 317.051 252.553 317.215 252.404C317.383 252.25 317.511 252.066 317.6 251.851C317.688 251.636 317.733 251.398 317.733 251.137C317.733 250.843 317.665 250.603 317.53 250.416C317.394 250.229 317.215 250.073 316.991 249.947C316.767 249.821 316.512 249.714 316.228 249.625C315.943 249.536 315.651 249.445 315.353 249.352C315.054 249.254 314.762 249.142 314.478 249.016C314.193 248.89 313.939 248.727 313.715 248.526C313.491 248.321 313.311 248.066 313.176 247.763C313.04 247.455 312.973 247.077 312.973 246.629C312.973 246.27 313.043 245.922 313.183 245.586C313.323 245.25 313.526 244.954 313.792 244.697C314.062 244.436 314.394 244.228 314.786 244.074C315.178 243.915 315.626 243.836 316.13 243.836C316.694 243.836 317.212 243.927 317.684 244.109C318.16 244.286 318.573 244.543 318.923 244.879L318.559 245.586ZM324.559 250.843C324.004 250.862 323.533 250.906 323.145 250.976C322.758 251.041 322.443 251.13 322.2 251.242C321.958 251.354 321.783 251.487 321.675 251.641C321.568 251.79 321.514 251.958 321.514 252.145C321.514 252.322 321.542 252.476 321.598 252.607C321.659 252.733 321.738 252.838 321.836 252.922C321.939 253.001 322.058 253.06 322.193 253.097C322.329 253.134 322.476 253.153 322.634 253.153C322.844 253.153 323.036 253.132 323.208 253.09C323.386 253.048 323.551 252.99 323.705 252.915C323.859 252.836 324.006 252.74 324.146 252.628C324.286 252.516 324.424 252.388 324.559 252.243V250.843ZM320.555 247.882C320.952 247.504 321.381 247.222 321.843 247.035C322.31 246.848 322.821 246.755 323.376 246.755C323.782 246.755 324.142 246.823 324.454 246.958C324.767 247.089 325.031 247.273 325.245 247.511C325.46 247.749 325.621 248.034 325.728 248.365C325.84 248.696 325.896 249.063 325.896 249.464V254H325.287C325.152 254 325.049 253.979 324.979 253.937C324.909 253.89 324.853 253.806 324.811 253.685L324.664 253.062C324.482 253.23 324.303 253.379 324.125 253.51C323.948 253.636 323.761 253.746 323.565 253.839C323.374 253.928 323.169 253.995 322.949 254.042C322.73 254.089 322.487 254.112 322.221 254.112C321.941 254.112 321.678 254.075 321.43 254C321.188 253.921 320.975 253.802 320.793 253.643C320.611 253.484 320.467 253.286 320.359 253.048C320.257 252.81 320.205 252.532 320.205 252.215C320.205 251.935 320.28 251.667 320.429 251.41C320.583 251.149 320.831 250.915 321.171 250.71C321.517 250.505 321.965 250.337 322.515 250.206C323.071 250.075 323.752 250.001 324.559 249.982V249.464C324.559 248.927 324.445 248.526 324.216 248.26C323.988 247.994 323.652 247.861 323.208 247.861C322.91 247.861 322.658 247.898 322.452 247.973C322.252 248.048 322.077 248.132 321.927 248.225C321.783 248.314 321.654 248.395 321.542 248.47C321.435 248.545 321.323 248.582 321.206 248.582C321.113 248.582 321.031 248.556 320.961 248.505C320.896 248.454 320.842 248.393 320.8 248.323L320.555 247.882ZM329.994 254.112C329.42 254.112 328.977 253.951 328.664 253.629C328.356 253.307 328.202 252.847 328.202 252.25V247.994H327.376C327.297 247.994 327.229 247.971 327.173 247.924C327.122 247.873 327.096 247.798 327.096 247.7V247.147L328.251 246.986L328.559 244.865C328.578 244.786 328.613 244.725 328.664 244.683C328.72 244.636 328.79 244.613 328.874 244.613H329.567V247H331.583V247.994H329.567V252.159C329.567 252.439 329.635 252.649 329.77 252.789C329.91 252.924 330.087 252.992 330.302 252.992C330.428 252.992 330.535 252.976 330.624 252.943C330.717 252.91 330.797 252.875 330.862 252.838C330.927 252.796 330.983 252.759 331.03 252.726C331.077 252.693 331.119 252.677 331.156 252.677C331.203 252.677 331.238 252.689 331.261 252.712C331.289 252.731 331.317 252.763 331.345 252.81L331.751 253.468C331.527 253.673 331.261 253.832 330.953 253.944C330.645 254.056 330.325 254.112 329.994 254.112Z" fill="#5B5B5B"/>
<g filter="url(#filter0_dd_193_797)">
<rect x="188" y="72" width="83" height="33" rx="8" fill="#101828"/>
<path d="M207.542 92.957V94H202.11V92.957H204.238V86.37C204.238 86.16 204.245 85.943 204.259 85.719L202.551 87.168C202.486 87.2193 202.42 87.252 202.355 87.266C202.29 87.28 202.227 87.2823 202.166 87.273C202.11 87.2637 202.059 87.245 202.012 87.217C201.97 87.1843 201.935 87.1517 201.907 87.119L201.48 86.524L204.49 83.927H205.603V92.957H207.542ZM215.551 92.705C215.7 92.705 215.817 92.7493 215.901 92.838C215.985 92.922 216.027 93.034 216.027 93.174V94H209.279V93.531C209.279 93.4377 209.298 93.3397 209.335 93.237C209.372 93.1297 209.435 93.034 209.524 92.95L212.702 89.765C212.968 89.499 213.208 89.2423 213.423 88.995C213.638 88.7477 213.82 88.5027 213.969 88.26C214.118 88.0127 214.233 87.7607 214.312 87.504C214.396 87.2473 214.438 86.9767 214.438 86.692C214.438 86.412 214.394 86.167 214.305 85.957C214.216 85.7423 214.095 85.565 213.941 85.425C213.787 85.285 213.605 85.18 213.395 85.11C213.185 85.04 212.959 85.005 212.716 85.005C212.473 85.005 212.249 85.04 212.044 85.11C211.843 85.18 211.664 85.278 211.505 85.404C211.346 85.53 211.213 85.6793 211.106 85.852C210.999 86.0247 210.922 86.2113 210.875 86.412C210.81 86.5893 210.726 86.7083 210.623 86.769C210.525 86.8297 210.38 86.8437 210.189 86.811L209.475 86.685C209.54 86.2183 209.669 85.8077 209.86 85.453C210.051 85.0983 210.292 84.802 210.581 84.564C210.87 84.3213 211.202 84.1393 211.575 84.018C211.953 83.8967 212.359 83.836 212.793 83.836C213.232 83.836 213.635 83.9013 214.004 84.032C214.377 84.158 214.699 84.3423 214.97 84.585C215.241 84.8277 215.453 85.124 215.607 85.474C215.761 85.8193 215.838 86.2113 215.838 86.65C215.838 87.0233 215.782 87.371 215.67 87.693C215.563 88.0103 215.413 88.3137 215.222 88.603C215.035 88.8923 214.816 89.1747 214.564 89.45C214.317 89.7207 214.053 89.996 213.773 90.276L211.225 92.88C211.421 92.8287 211.617 92.7867 211.813 92.754C212.014 92.7213 212.203 92.705 212.38 92.705H215.551ZM230.062 83.948V94H228.571V89.471H223.328V94H221.83V83.948H223.328V88.386H228.571V83.948H230.062ZM235.221 86.776C235.744 86.776 236.215 86.8623 236.635 87.035C237.06 87.203 237.419 87.448 237.713 87.77C238.012 88.0873 238.24 88.4723 238.399 88.925C238.558 89.373 238.637 89.877 238.637 90.437C238.637 90.997 238.558 91.5033 238.399 91.956C238.24 92.4087 238.012 92.7937 237.713 93.111C237.419 93.4283 237.06 93.6733 236.635 93.846C236.215 94.014 235.744 94.098 235.221 94.098C234.694 94.098 234.218 94.014 233.793 93.846C233.373 93.6733 233.014 93.4283 232.715 93.111C232.416 92.7937 232.185 92.4087 232.022 91.956C231.863 91.5033 231.784 90.997 231.784 90.437C231.784 89.877 231.863 89.373 232.022 88.925C232.185 88.4723 232.416 88.0873 232.715 87.77C233.014 87.448 233.373 87.203 233.793 87.035C234.218 86.8623 234.694 86.776 235.221 86.776ZM235.221 93.034C235.893 93.034 236.395 92.8077 236.726 92.355C237.057 91.9023 237.223 91.2653 237.223 90.444C237.223 89.6227 237.057 88.9857 236.726 88.533C236.395 88.0757 235.893 87.847 235.221 87.847C234.54 87.847 234.031 88.0757 233.695 88.533C233.364 88.9857 233.198 89.6227 233.198 90.444C233.198 91.2653 233.364 91.9023 233.695 92.355C234.031 92.8077 234.54 93.034 235.221 93.034ZM246.216 86.888V94H245.397C245.21 94 245.089 93.909 245.033 93.727L244.935 93.013C244.781 93.1763 244.62 93.3257 244.452 93.461C244.284 93.5963 244.104 93.713 243.913 93.811C243.722 93.9043 243.519 93.9767 243.304 94.028C243.089 94.084 242.858 94.112 242.611 94.112C242.219 94.112 241.874 94.0467 241.575 93.916C241.281 93.7853 241.034 93.6033 240.833 93.37C240.632 93.132 240.481 92.8473 240.378 92.516C240.275 92.1847 240.224 91.8183 240.224 91.417V86.888H241.596V91.417C241.596 91.9257 241.713 92.3223 241.946 92.607C242.179 92.887 242.536 93.027 243.017 93.027C243.367 93.027 243.694 92.9453 243.997 92.782C244.3 92.614 244.585 92.3853 244.851 92.096V86.888H246.216ZM249.549 88.253C249.778 87.7863 250.053 87.42 250.375 87.154C250.697 86.888 251.084 86.755 251.537 86.755C251.691 86.755 251.836 86.7737 251.971 86.811C252.111 86.8437 252.232 86.895 252.335 86.965L252.244 87.994C252.211 88.12 252.134 88.183 252.013 88.183C251.948 88.183 251.85 88.1713 251.719 88.148C251.588 88.12 251.448 88.106 251.299 88.106C251.08 88.106 250.886 88.1387 250.718 88.204C250.55 88.2647 250.398 88.358 250.263 88.484C250.132 88.6053 250.016 88.757 249.913 88.939C249.81 89.1163 249.715 89.3193 249.626 89.548V94H248.261V86.888H249.045C249.194 86.888 249.295 86.916 249.346 86.972C249.402 87.0233 249.442 87.1167 249.465 87.252L249.549 88.253ZM257.68 88.113C257.643 88.1737 257.603 88.218 257.561 88.246C257.519 88.2693 257.465 88.281 257.4 88.281C257.325 88.281 257.241 88.2553 257.148 88.204C257.059 88.1527 256.95 88.0967 256.819 88.036C256.693 87.9753 256.544 87.9193 256.371 87.868C256.198 87.8167 255.993 87.791 255.755 87.791C255.559 87.791 255.379 87.8167 255.216 87.868C255.057 87.9147 254.922 87.9823 254.81 88.071C254.698 88.155 254.612 88.2577 254.551 88.379C254.49 88.4957 254.46 88.6217 254.46 88.757C254.46 88.9343 254.511 89.0813 254.614 89.198C254.721 89.3147 254.859 89.415 255.027 89.499C255.2 89.583 255.393 89.66 255.608 89.73C255.827 89.7953 256.049 89.8653 256.273 89.94C256.502 90.0147 256.723 90.101 256.938 90.199C257.157 90.2923 257.351 90.4113 257.519 90.556C257.692 90.696 257.829 90.8663 257.932 91.067C258.039 91.2677 258.093 91.5127 258.093 91.802C258.093 92.1333 258.032 92.4413 257.911 92.726C257.794 93.006 257.619 93.2487 257.386 93.454C257.157 93.6593 256.873 93.8203 256.532 93.937C256.191 94.0537 255.802 94.112 255.363 94.112C254.873 94.112 254.42 94.0303 254.005 93.867C253.59 93.7037 253.242 93.496 252.962 93.244L253.284 92.719C253.321 92.6537 253.368 92.6047 253.424 92.572C253.48 92.5347 253.555 92.516 253.648 92.516C253.737 92.516 253.828 92.5487 253.921 92.614C254.014 92.6793 254.126 92.7517 254.257 92.831C254.388 92.9057 254.546 92.9757 254.733 93.041C254.92 93.1017 255.153 93.132 255.433 93.132C255.666 93.132 255.869 93.104 256.042 93.048C256.215 92.9873 256.357 92.908 256.469 92.81C256.586 92.7073 256.672 92.5907 256.728 92.46C256.784 92.3293 256.812 92.1917 256.812 92.047C256.812 91.8603 256.758 91.7063 256.651 91.585C256.548 91.459 256.411 91.3517 256.238 91.263C256.07 91.1743 255.876 91.0973 255.657 91.032C255.438 90.9667 255.214 90.8967 254.985 90.822C254.756 90.7473 254.532 90.661 254.313 90.563C254.094 90.465 253.898 90.3413 253.725 90.192C253.557 90.0427 253.419 89.8607 253.312 89.646C253.209 89.4313 253.158 89.17 253.158 88.862C253.158 88.5867 253.214 88.323 253.326 88.071C253.443 87.819 253.608 87.5973 253.823 87.406C254.042 87.2147 254.311 87.063 254.628 86.951C254.95 86.8343 255.316 86.776 255.727 86.776C256.198 86.776 256.623 86.8507 257.001 87C257.384 87.1493 257.71 87.3547 257.981 87.616L257.68 88.113Z" fill="white"/>
<path d="M235.571 102.485C236.462 102.485 236.908 103.562 236.278 104.192L230.207 110.263C229.817 110.654 229.183 110.654 228.793 110.263L222.722 104.192C222.092 103.562 222.538 102.485 223.429 102.485H235.571Z" fill="#101828"/>
</g>
<defs>
<filter id="filter0_dd_193_797" x="176" y="72" width="107" height="63" filterUnits="userSpaceOnUse" color-interpolation-filters="sRGB">
<feFlood flood-opacity="0" result="BackgroundImageFix"/>
<feColorMatrix in="SourceAlpha" type="matrix" values="0 0 0 0 0 0 0 0 0 0 0 0 0 0 0 0 0 0 127 0" result="hardAlpha"/>
<feMorphology radius="2" operator="erode" in="SourceAlpha" result="effect1_dropShadow_193_797"/>
<feOffset dy="4"/>
<feGaussianBlur stdDeviation="3"/>
<feColorMatrix type="matrix" values="0 0 0 0 0.0627451 0 0 0 0 0.0941176 0 0 0 0 0.156863 0 0 0 0.03 0"/>
<feBlend mode="normal" in2="BackgroundImageFix" result="effect1_dropShadow_193_797"/>
<feColorMatrix in="SourceAlpha" type="matrix" values="0 0 0 0 0 0 0 0 0 0 0 0 0 0 0 0 0 0 127 0" result="hardAlpha"/>
<feMorphology radius="4" operator="erode" in="SourceAlpha" result="effect2_dropShadow_193_797"/>
<feOffset dy="12"/>
<feGaussianBlur stdDeviation="8"/>
<feColorMatrix type="matrix" values="0 0 0 0 0.0627451 0 0 0 0 0.0941176 0 0 0 0 0.156863 0 0 0 0.08 0"/>
<feBlend mode="normal" in2="effect1_dropShadow_193_797" result="effect2_dropShadow_193_797"/>
<feBlend mode="normal" in="SourceGraphic" in2="effect2_dropShadow_193_797" result="shape"/>
</filter>
</defs>
</svg>
